<svg xmlns="http://www.w3.org/2000/svg" xmlns:xlink="http://www.w3.org/1999/xlink" width="500" zoomAndPan="magnify" viewBox="0 0 375 374.999991" height="500" preserveAspectRatio="xMidYMid meet" version="1.0"><defs><clipPath id="083210a5c4"><path d="M 0 201.175781 L 174 201.175781 L 174 375 L 0 375 Z M 0 201.175781 " clip-rule="nonzero"/></clipPath></defs><rect x="-37.5" width="450" fill="#ffffff" y="-37.499999" height="449.999989" fill-opacity="1"/><rect x="-37.5" width="450" fill="#ffffff" y="-37.499999" height="449.999989" fill-opacity="1"/><g clip-path="url(#083210a5c4)"><path fill="#ffffff" d="M 173.824219 375 L 0 375 L 0 201.175781 L 173.824219 201.175781 Z M 1.105469 373.894531 L 172.71875 373.894531 L 172.71875 202.28125 L 1.105469 202.28125 Z M 1.105469 373.894531 " fill-opacity="1" fill-rule="nonzero"/></g><path fill="#ffffff" d="M 187.691406 347.230469 C 187.691406 347.230469 210.433594 347.410156 223.828125 347.230469 C 237.21875 347.050781 248.101562 323.351562 248.101562 323.351562 L 279.777344 357.714844 L 308.144531 367.820312 L 327.960938 353.261719 C 327.960938 353.261719 327.960938 223.800781 327.960938 142.421875 C 283.699219 20.011719 187.691406 38.378906 187.691406 38.378906 L 187.257812 38.378906 C 187.257812 38.378906 91.253906 20.011719 46.992188 142.417969 C 46.992188 223.796875 46.992188 353.261719 46.992188 353.261719 L 64.582031 365.9375 L 104.878906 356.683594 L 126.851562 323.347656 C 126.851562 323.347656 137.734375 347.050781 151.125 347.230469 C 164.515625 347.410156 187.257812 347.230469 187.257812 347.230469 Z M 187.691406 347.230469 " fill-opacity="1" fill-rule="nonzero"/><path fill="#004aad" d="M 308.144531 369.363281 C 307.96875 369.363281 307.796875 369.335938 307.625 369.277344 L 279.257812 359.167969 C 279.019531 359.085938 278.808594 358.945312 278.640625 358.761719 L 248.488281 326.050781 C 245.414062 332.003906 235.761719 348.617188 223.847656 348.777344 C 219.890625 348.832031 214.726562 348.859375 208.507812 348.859375 C 197.917969 348.859375 187.78125 348.777344 187.679688 348.777344 L 187.257812 348.777344 C 187.167969 348.777344 177.035156 348.859375 166.445312 348.859375 C 160.222656 348.859375 155.0625 348.832031 151.105469 348.777344 C 139.441406 348.621094 129.945312 332.695312 126.664062 326.441406 L 106.167969 357.535156 C 105.949219 357.867188 105.613281 358.101562 105.226562 358.191406 L 64.929688 367.441406 C 64.496094 367.542969 64.042969 367.449219 63.679688 367.191406 L 46.089844 354.515625 C 45.6875 354.226562 45.445312 353.761719 45.445312 353.261719 L 45.445312 142.417969 C 45.445312 142.238281 45.476562 142.0625 45.539062 141.894531 C 60.433594 100.703125 82.734375 70.886719 111.816406 53.277344 C 135.601562 38.878906 158.613281 35.855469 173.730469 35.855469 C 181.5 35.855469 186.472656 36.667969 187.398438 36.832031 L 187.550781 36.832031 C 188.480469 36.667969 193.449219 35.855469 201.21875 35.855469 C 216.335938 35.855469 239.347656 38.878906 263.136719 53.28125 C 292.21875 70.890625 314.519531 100.703125 329.414062 141.894531 C 329.472656 142.0625 329.503906 142.238281 329.503906 142.417969 L 329.503906 353.261719 C 329.503906 353.753906 329.269531 354.21875 328.875 354.507812 L 309.0625 369.066406 C 308.792969 369.261719 308.46875 369.363281 308.144531 369.363281 Z M 280.652344 356.386719 L 307.890625 366.089844 L 326.414062 352.480469 L 326.414062 142.691406 C 311.769531 102.3125 289.941406 73.121094 261.535156 55.925781 C 238.359375 41.890625 215.941406 38.945312 201.21875 38.945312 C 193.078125 38.945312 188.03125 39.886719 187.984375 39.894531 C 187.886719 39.914062 187.789062 39.921875 187.691406 39.921875 L 187.257812 39.921875 C 187.164062 39.921875 187.066406 39.914062 186.96875 39.894531 C 186.917969 39.886719 181.871094 38.945312 173.730469 38.945312 C 159.007812 38.945312 136.59375 41.890625 113.417969 55.921875 C 85.011719 73.121094 63.183594 102.3125 48.535156 142.691406 L 48.535156 352.472656 L 64.917969 364.273438 L 103.929688 355.316406 L 125.5625 322.5 C 125.871094 322.03125 126.40625 321.765625 126.96875 321.808594 C 127.527344 321.851562 128.019531 322.195312 128.253906 322.703125 C 128.359375 322.933594 138.886719 345.523438 151.144531 345.6875 C 155.089844 345.738281 160.234375 345.765625 166.445312 345.765625 C 177.023438 345.765625 187.144531 345.6875 187.246094 345.6875 L 187.691406 345.6875 C 187.804688 345.6875 197.929688 345.765625 208.507812 345.765625 C 214.714844 345.765625 219.863281 345.738281 223.804688 345.6875 C 230.089844 345.601562 235.941406 339.449219 239.742188 334.304688 C 243.992188 328.550781 246.667969 322.761719 246.695312 322.703125 C 246.910156 322.234375 247.347656 321.902344 247.859375 321.824219 C 248.371094 321.742188 248.886719 321.921875 249.234375 322.300781 Z M 280.652344 356.386719 " fill-opacity="1" fill-rule="nonzero"/><path fill="#000000" d="M 188.03125 213.714844 C 188.03125 213.714844 238.765625 214.785156 275.335938 199.4375 C 275.335938 218.636719 275.335938 220.425781 275.335938 220.425781 L 234.386719 240.125 L 188.03125 228.433594 L 186.921875 228.433594 L 140.566406 240.125 L 99.617188 220.425781 C 99.617188 220.425781 99.617188 218.636719 99.617188 199.4375 C 136.1875 214.785156 186.921875 213.714844 186.921875 213.714844 Z M 188.03125 213.714844 " fill-opacity="1" fill-rule="nonzero"/><path fill="#ffffff" d="M 63.5 366.46875 C 63.863281 366.292969 64.226562 366.113281 64.582031 365.9375 C 88.796875 353.96875 95.175781 349.144531 95.175781 340.007812 C 95.175781 330.738281 95.175781 292.6875 95.175781 275.304688 C 95.175781 257.921875 87.421875 254.960938 75.667969 243.820312 C 69.101562 237.253906 67.75 233.777344 67.75 227.597656 C 67.75 221.417969 67.75 204.417969 67.75 196.308594 C 67.75 188.195312 74.285156 187.011719 74.285156 187.011719 C 82.691406 192.84375 99.617188 199.4375 99.617188 199.4375 L 99.617188 227.988281 C 99.617188 234.167969 100.777344 237.253906 107.34375 243.820312 C 119.097656 254.960938 126.851562 257.921875 126.851562 275.304688 C 126.851562 292.6875 126.851562 330.738281 126.851562 340.007812 C 126.851562 349.28125 120.285156 354.109375 95.175781 366.46875 C 95.175781 366.46875 82.234375 374.96875 63.5 366.46875 Z M 63.5 366.46875 " fill-opacity="1" fill-rule="nonzero"/><path fill="#004aad" d="M 80.039062 371.792969 C 74.367188 371.792969 68.589844 370.476562 62.859375 367.878906 C 62.316406 367.632812 61.964844 367.09375 61.953125 366.496094 C 61.945312 365.898438 62.28125 365.347656 62.816406 365.085938 L 63.898438 364.550781 C 88.351562 352.464844 93.628906 348.109375 93.628906 340.011719 L 93.628906 275.304688 C 93.628906 261.761719 89.003906 257.710938 80.601562 250.351562 C 78.796875 248.769531 76.75 246.976562 74.605469 244.945312 C 68.082031 238.421875 66.203125 234.535156 66.203125 227.597656 L 66.203125 196.308594 C 66.203125 188.871094 71.308594 185.980469 74.011719 185.492188 C 74.414062 185.417969 74.832031 185.507812 75.167969 185.742188 C 83.324219 191.402344 100.007812 197.933594 100.175781 198 C 100.769531 198.230469 101.160156 198.800781 101.160156 199.4375 L 101.160156 227.988281 C 101.160156 233.683594 102.164062 236.460938 108.433594 242.730469 C 110.507812 244.691406 112.441406 246.386719 114.3125 248.027344 C 122.796875 255.453125 128.398438 260.359375 128.398438 275.304688 L 128.398438 340.007812 C 128.398438 350.273438 121.082031 355.433594 95.933594 367.820312 C 95.117188 368.328125 89.25 371.792969 80.039062 371.792969 Z M 67.25 366.339844 C 71.539062 367.90625 75.828125 368.703125 80.039062 368.703125 C 88.796875 368.703125 94.277344 365.210938 94.332031 365.175781 C 94.382812 365.144531 94.4375 365.113281 94.492188 365.085938 C 119.835938 352.609375 125.308594 348.15625 125.308594 340.007812 L 125.308594 275.304688 C 125.308594 261.761719 120.679688 257.710938 112.28125 250.351562 C 110.472656 248.769531 108.425781 246.976562 106.28125 244.945312 C 99.308594 237.972656 98.074219 234.441406 98.074219 227.988281 L 98.074219 200.488281 C 94.394531 199.015625 81.5 193.699219 74.007812 188.691406 C 72.648438 189.164062 69.292969 190.882812 69.292969 196.308594 L 69.292969 227.597656 C 69.292969 233.253906 70.421875 236.390625 76.761719 242.730469 C 78.832031 244.691406 80.765625 246.386719 82.640625 248.027344 C 91.121094 255.453125 96.722656 260.359375 96.722656 275.304688 L 96.722656 340.007812 C 96.722656 349.949219 90.023438 354.996094 67.25 366.339844 Z M 67.25 366.339844 " fill-opacity="1" fill-rule="nonzero"/><path fill="#ffffff" d="M 311.453125 366.46875 C 311.085938 366.292969 310.726562 366.113281 310.371094 365.9375 C 286.15625 353.96875 279.777344 349.144531 279.777344 340.007812 C 279.777344 330.738281 279.777344 292.6875 279.777344 275.304688 C 279.777344 257.921875 287.53125 254.960938 299.285156 243.820312 C 305.851562 237.253906 307.203125 233.777344 307.203125 227.597656 C 307.203125 221.417969 307.203125 204.417969 307.203125 196.308594 C 307.203125 188.195312 300.664062 187.011719 300.664062 187.011719 C 292.257812 192.84375 275.335938 199.4375 275.335938 199.4375 L 275.335938 227.988281 C 275.335938 234.167969 274.175781 237.253906 267.609375 243.820312 C 255.855469 254.960938 248.101562 257.921875 248.101562 275.304688 C 248.101562 292.6875 248.101562 330.738281 248.101562 340.007812 C 248.101562 349.28125 254.667969 354.109375 279.777344 366.46875 C 279.777344 366.46875 292.71875 374.96875 311.453125 366.46875 Z M 311.453125 366.46875 " fill-opacity="1" fill-rule="nonzero"/><path fill="#004aad" d="M 294.914062 371.792969 C 285.699219 371.792969 279.832031 368.328125 279.019531 367.820312 C 253.867188 355.433594 246.554688 350.273438 246.554688 340.007812 L 246.554688 275.304688 C 246.554688 260.359375 252.15625 255.453125 260.636719 248.027344 C 262.507812 246.386719 264.445312 244.691406 266.542969 242.699219 C 272.785156 236.457031 273.789062 233.683594 273.789062 227.988281 L 273.789062 199.4375 C 273.789062 198.800781 274.179688 198.230469 274.773438 198 C 274.941406 197.933594 291.625 191.402344 299.78125 185.742188 C 300.121094 185.507812 300.539062 185.417969 300.9375 185.492188 C 303.640625 185.980469 308.746094 188.871094 308.746094 196.308594 L 308.746094 227.597656 C 308.746094 234.535156 306.867188 238.421875 300.375 244.914062 C 298.203125 246.976562 296.152344 248.769531 294.347656 250.351562 C 285.945312 257.707031 281.320312 261.761719 281.320312 275.304688 L 281.320312 340.007812 C 281.320312 348.105469 286.601562 352.464844 311.050781 364.550781 L 312.132812 365.082031 C 312.667969 365.347656 313.003906 365.898438 312.996094 366.496094 C 312.984375 367.089844 312.632812 367.628906 312.089844 367.878906 C 306.363281 370.476562 300.585938 371.792969 294.914062 371.792969 Z M 276.878906 200.488281 L 276.878906 227.988281 C 276.878906 234.441406 275.644531 237.972656 268.699219 244.914062 C 266.527344 246.976562 264.476562 248.769531 262.671875 250.351562 C 254.273438 257.707031 249.644531 261.761719 249.644531 275.304688 L 249.644531 340.007812 C 249.644531 348.15625 255.117188 352.609375 280.460938 365.085938 C 280.515625 365.113281 280.570312 365.144531 280.625 365.179688 C 280.675781 365.210938 286.15625 368.703125 294.914062 368.703125 C 299.125 368.703125 303.414062 367.910156 307.703125 366.339844 C 284.929688 354.996094 278.230469 349.949219 278.230469 340.011719 L 278.230469 275.304688 C 278.230469 260.359375 283.832031 255.453125 292.3125 248.027344 C 294.1875 246.386719 296.121094 244.691406 298.222656 242.699219 C 304.53125 236.390625 305.660156 233.253906 305.660156 227.597656 L 305.660156 196.308594 C 305.660156 190.824219 302.316406 189.144531 300.953125 188.683594 C 293.460938 193.695312 280.558594 199.011719 276.878906 200.488281 Z M 276.878906 200.488281 " fill-opacity="1" fill-rule="nonzero"/><path fill="#f8cc00" d="M 158.832031 212.6875 C 158.832031 212.6875 133.125 211.125 114.890625 204.777344 C 110.910156 208.585938 110.183594 220.535156 114.890625 222.769531 C 119.597656 225.003906 140.953125 235.132812 140.953125 235.132812 L 164.257812 226.117188 C 164.257812 226.117188 167.800781 220.425781 158.832031 212.6875 Z M 158.832031 212.6875 " fill-opacity="1" fill-rule="nonzero"/><path fill="#f8cc00" d="M 104.878906 154.097656 C 104.878906 154.644531 104.851562 155.1875 104.800781 155.726562 C 104.746094 156.269531 104.667969 156.804688 104.558594 157.339844 C 104.453125 157.875 104.320312 158.402344 104.164062 158.921875 C 104.007812 159.441406 103.824219 159.953125 103.613281 160.457031 C 103.40625 160.957031 103.175781 161.449219 102.917969 161.929688 C 102.660156 162.410156 102.382812 162.875 102.078125 163.328125 C 101.777344 163.78125 101.453125 164.214844 101.109375 164.636719 C 100.765625 165.058594 100.398438 165.460938 100.015625 165.84375 C 99.628906 166.230469 99.226562 166.59375 98.804688 166.941406 C 98.386719 167.285156 97.949219 167.609375 97.496094 167.910156 C 97.042969 168.214844 96.578125 168.492188 96.097656 168.75 C 95.617188 169.003906 95.128906 169.238281 94.625 169.445312 C 94.121094 169.652344 93.609375 169.835938 93.089844 169.996094 C 92.570312 170.152344 92.042969 170.285156 91.507812 170.390625 C 90.976562 170.496094 90.4375 170.578125 89.898438 170.628906 C 89.355469 170.683594 88.8125 170.710938 88.269531 170.710938 C 87.722656 170.710938 87.183594 170.683594 86.640625 170.628906 C 86.097656 170.578125 85.5625 170.496094 85.027344 170.390625 C 84.496094 170.285156 83.96875 170.152344 83.445312 169.996094 C 82.925781 169.835938 82.414062 169.652344 81.910156 169.445312 C 81.410156 169.238281 80.917969 169.003906 80.4375 168.75 C 79.957031 168.492188 79.492188 168.214844 79.039062 167.910156 C 78.585938 167.609375 78.152344 167.285156 77.730469 166.941406 C 77.308594 166.59375 76.90625 166.230469 76.523438 165.84375 C 76.136719 165.460938 75.773438 165.058594 75.429688 164.636719 C 75.082031 164.214844 74.757812 163.78125 74.457031 163.328125 C 74.15625 162.875 73.875 162.410156 73.621094 161.929688 C 73.363281 161.449219 73.128906 160.957031 72.921875 160.457031 C 72.714844 159.953125 72.53125 159.441406 72.375 158.921875 C 72.214844 158.402344 72.082031 157.875 71.976562 157.339844 C 71.871094 156.804688 71.792969 156.269531 71.738281 155.726562 C 71.683594 155.1875 71.65625 154.644531 71.65625 154.097656 C 71.65625 153.554688 71.683594 153.011719 71.738281 152.472656 C 71.792969 151.929688 71.871094 151.390625 71.976562 150.859375 C 72.082031 150.324219 72.214844 149.796875 72.375 149.277344 C 72.53125 148.757812 72.714844 148.246094 72.921875 147.742188 C 73.128906 147.238281 73.363281 146.75 73.621094 146.269531 C 73.875 145.789062 74.15625 145.324219 74.457031 144.871094 C 74.757812 144.417969 75.082031 143.980469 75.429688 143.5625 C 75.773438 143.140625 76.136719 142.738281 76.523438 142.355469 C 76.90625 141.96875 77.308594 141.605469 77.730469 141.257812 C 78.152344 140.914062 78.585938 140.589844 79.039062 140.289062 C 79.492188 139.984375 79.957031 139.707031 80.4375 139.449219 C 80.917969 139.195312 81.410156 138.960938 81.910156 138.753906 C 82.414062 138.546875 82.925781 138.363281 83.445312 138.203125 C 83.96875 138.046875 84.496094 137.914062 85.027344 137.808594 C 85.5625 137.703125 86.097656 137.621094 86.640625 137.570312 C 87.183594 137.515625 87.722656 137.488281 88.269531 137.488281 C 88.8125 137.488281 89.355469 137.515625 89.898438 137.570312 C 90.4375 137.621094 90.976562 137.703125 91.507812 137.808594 C 92.042969 137.914062 92.570312 138.046875 93.089844 138.203125 C 93.609375 138.363281 94.121094 138.546875 94.625 138.753906 C 95.128906 138.960938 95.617188 139.195312 96.097656 139.449219 C 96.578125 139.707031 97.042969 139.984375 97.496094 140.289062 C 97.949219 140.589844 98.386719 140.914062 98.804688 141.257812 C 99.226562 141.605469 99.628906 141.96875 100.015625 142.355469 C 100.398438 142.738281 100.765625 143.140625 101.109375 143.5625 C 101.453125 143.980469 101.777344 144.417969 102.078125 144.871094 C 102.382812 145.324219 102.660156 145.789062 102.917969 146.269531 C 103.175781 146.75 103.40625 147.238281 103.613281 147.742188 C 103.824219 148.246094 104.007812 148.757812 104.164062 149.277344 C 104.320312 149.796875 104.453125 150.324219 104.558594 150.859375 C 104.667969 151.390625 104.746094 151.929688 104.800781 152.472656 C 104.851562 153.011719 104.878906 153.554688 104.878906 154.097656 Z M 104.878906 154.097656 " fill-opacity="1" fill-rule="nonzero"/><path fill="#000000" d="M 96.921875 154.097656 C 96.921875 154.667969 96.867188 155.230469 96.753906 155.789062 C 96.644531 156.34375 96.480469 156.886719 96.261719 157.410156 C 96.042969 157.933594 95.777344 158.433594 95.460938 158.90625 C 95.148438 159.378906 94.789062 159.816406 94.386719 160.21875 C 93.984375 160.617188 93.546875 160.976562 93.074219 161.292969 C 92.601562 161.609375 92.105469 161.875 91.578125 162.09375 C 91.054688 162.308594 90.515625 162.472656 89.957031 162.585938 C 89.398438 162.695312 88.835938 162.75 88.269531 162.75 C 87.699219 162.75 87.136719 162.695312 86.582031 162.585938 C 86.023438 162.472656 85.480469 162.308594 84.957031 162.09375 C 84.433594 161.875 83.933594 161.609375 83.460938 161.292969 C 82.988281 160.976562 82.550781 160.617188 82.152344 160.21875 C 81.75 159.816406 81.390625 159.378906 81.074219 158.90625 C 80.757812 158.433594 80.492188 157.933594 80.273438 157.410156 C 80.058594 156.886719 79.894531 156.34375 79.78125 155.789062 C 79.671875 155.230469 79.617188 154.667969 79.617188 154.097656 C 79.617188 153.53125 79.671875 152.96875 79.78125 152.410156 C 79.894531 151.855469 80.058594 151.3125 80.273438 150.789062 C 80.492188 150.261719 80.757812 149.765625 81.074219 149.292969 C 81.390625 148.820312 81.75 148.382812 82.152344 147.980469 C 82.550781 147.578125 82.988281 147.222656 83.460938 146.90625 C 83.933594 146.589844 84.433594 146.324219 84.957031 146.105469 C 85.480469 145.886719 86.023438 145.722656 86.582031 145.613281 C 87.136719 145.503906 87.699219 145.445312 88.269531 145.445312 C 88.835938 145.445312 89.398438 145.503906 89.957031 145.613281 C 90.515625 145.722656 91.054688 145.886719 91.578125 146.105469 C 92.105469 146.324219 92.601562 146.589844 93.074219 146.90625 C 93.546875 147.222656 93.984375 147.578125 94.386719 147.980469 C 94.789062 148.382812 95.148438 148.820312 95.460938 149.292969 C 95.777344 149.765625 96.042969 150.261719 96.261719 150.789062 C 96.480469 151.3125 96.644531 151.855469 96.753906 152.410156 C 96.867188 152.96875 96.921875 153.53125 96.921875 154.097656 Z M 96.921875 154.097656 " fill-opacity="1" fill-rule="nonzero"/><path fill="#ffffff" d="M 63.5 366.46875 C 63.5 366.46875 63.5 305.132812 63.5 278.628906 C 63.5 252.128906 46.992188 229.101562 46.992188 199.4375 C 46.992188 169.773438 46.992188 142.417969 46.992188 142.417969 C 46.992188 142.417969 13.859375 148.855469 13.089844 209.375 C 12.316406 269.898438 4.734375 353.335938 63.5 366.46875 Z M 63.5 366.46875 " fill-opacity="1" fill-rule="nonzero"/><path fill="#004aad" d="M 63.5 368.015625 C 63.386719 368.015625 63.273438 368.003906 63.160156 367.976562 C 8.371094 355.734375 9.957031 283.75 11.226562 225.910156 C 11.355469 220.152344 11.472656 214.714844 11.542969 209.355469 C 11.765625 191.832031 15.007812 167.683594 29.1875 152.160156 C 37.8125 142.71875 46.335938 140.972656 46.695312 140.902344 C 47.148438 140.816406 47.617188 140.933594 47.972656 141.226562 C 48.328125 141.519531 48.535156 141.957031 48.535156 142.417969 L 48.535156 199.4375 C 48.535156 214.445312 52.871094 227.855469 57.0625 240.824219 C 61.167969 253.519531 65.042969 265.507812 65.042969 278.628906 L 65.042969 366.46875 C 65.042969 366.9375 64.832031 367.382812 64.464844 367.675781 C 64.1875 367.898438 63.847656 368.015625 63.5 368.015625 Z M 45.445312 144.496094 C 42.625 145.511719 36.960938 148.164062 31.304688 154.429688 C 17.914062 169.25 14.847656 192.5 14.632812 209.398438 C 14.5625 214.769531 14.445312 220.214844 14.316406 225.980469 C 13.6875 254.589844 12.976562 287.019531 19.078125 313.191406 C 25.804688 342.03125 39.839844 358.839844 61.953125 364.511719 L 61.953125 278.628906 C 61.953125 265.996094 58.152344 254.230469 54.125 241.773438 C 49.859375 228.578125 45.445312 214.929688 45.445312 199.4375 Z M 45.445312 144.496094 " fill-opacity="1" fill-rule="nonzero"/><path fill="#004aad" d="M 32.472656 348.777344 C 31.621094 348.777344 30.929688 348.085938 30.929688 347.230469 L 30.929688 285.703125 C 30.929688 274.792969 27.816406 263.609375 24.515625 251.765625 C 21.082031 239.433594 17.53125 226.679688 17.53125 213.714844 C 17.53125 203.300781 18.78125 197.863281 21.847656 194.945312 C 25.246094 191.707031 30.492188 191.964844 37.75 192.316406 C 40.46875 192.449219 43.550781 192.597656 46.992188 192.597656 C 47.84375 192.597656 48.535156 193.292969 48.535156 194.144531 C 48.535156 194.996094 47.84375 195.6875 46.992188 195.6875 C 43.476562 195.6875 40.351562 195.539062 37.597656 195.402344 C 30.867188 195.074219 26.417969 194.859375 23.976562 197.183594 C 21.625 199.425781 20.621094 204.367188 20.621094 213.714844 C 20.621094 226.257812 24.117188 238.804688 27.496094 250.9375 C 30.851562 262.988281 34.019531 274.375 34.019531 285.703125 L 34.019531 347.234375 C 34.019531 348.085938 33.328125 348.777344 32.472656 348.777344 Z M 32.472656 348.777344 " fill-opacity="1" fill-rule="nonzero"/><path fill="#000000" d="M 63.5 350.746094 C 63.5 350.746094 43.589844 344.148438 43.144531 340.570312 C 42.703125 336.996094 43.144531 323.351562 43.144531 323.351562 L 63.5 323.351562 Z M 63.5 350.746094 " fill-opacity="1" fill-rule="nonzero"/><path fill="#000000" d="M 42.949219 292.695312 L 63.5 292.695312 L 63.5 314.195312 L 42.949219 314.195312 Z M 42.949219 292.695312 " fill-opacity="1" fill-rule="nonzero"/><path fill="#000000" d="M 39.933594 262.339844 L 61.695312 262.339844 C 61.695312 262.339844 63.5 271.511719 63.5 283.839844 L 42.949219 283.839844 C 42.949219 283.839844 42.691406 270.816406 39.933594 262.339844 Z M 39.933594 262.339844 " fill-opacity="1" fill-rule="nonzero"/><path fill="#000000" d="M 59.367188 253.4375 L 37.933594 253.4375 L 30.859375 235.128906 L 53.222656 235.128906 Z M 59.367188 253.4375 " fill-opacity="1" fill-rule="nonzero"/><path fill="#000000" d="M 50.941406 226.0625 L 28.75 226.0625 C 28.75 226.0625 26.042969 211.230469 27.519531 204.777344 C 37.363281 204.777344 47.167969 204.777344 47.167969 204.777344 C 47.167969 204.777344 48.660156 216.992188 50.941406 226.0625 Z M 50.941406 226.0625 " fill-opacity="1" fill-rule="nonzero"/><path fill="#f8cc00" d="M 216.121094 212.6875 C 216.121094 212.6875 241.824219 211.125 260.0625 204.777344 C 264.039062 208.585938 264.769531 220.535156 260.0625 222.769531 C 255.351562 225.003906 234 235.132812 234 235.132812 L 210.695312 226.117188 C 210.695312 226.117188 207.148438 220.425781 216.121094 212.6875 Z M 216.121094 212.6875 " fill-opacity="1" fill-rule="nonzero"/><path fill="#ffffff" d="M 194.429688 93.984375 L 223.828125 93.984375 L 238.199219 43.039062 C 238.199219 43.039062 233.253906 22.867188 231.683594 13.351562 C 230.109375 3.835938 222.976562 1.554688 216.125 1.554688 C 209.277344 1.554688 188.03125 1.554688 188.03125 1.554688 L 186.921875 1.554688 C 186.921875 1.554688 165.675781 1.554688 158.824219 1.554688 C 151.976562 1.554688 144.839844 3.839844 143.269531 13.351562 C 141.699219 22.867188 136.75 43.039062 136.75 43.039062 L 151.125 93.984375 Z M 194.429688 93.984375 " fill-opacity="1" fill-rule="nonzero"/><path fill="#004aad" d="M 223.828125 95.527344 L 151.125 95.527344 C 150.433594 95.527344 149.824219 95.066406 149.636719 94.402344 L 135.261719 43.460938 C 135.191406 43.203125 135.1875 42.929688 135.25 42.671875 C 135.296875 42.472656 140.203125 22.449219 141.746094 13.101562 C 143.15625 4.535156 149.066406 0.0078125 158.824219 0.0078125 L 216.125 0.0078125 C 225.886719 0.0078125 231.792969 4.535156 233.207031 13.101562 C 234.75 22.449219 239.652344 42.472656 239.699219 42.671875 C 239.765625 42.929688 239.757812 43.203125 239.6875 43.460938 L 225.3125 94.402344 C 225.125 95.066406 224.519531 95.527344 223.828125 95.527344 Z M 152.292969 92.4375 L 222.65625 92.4375 L 236.605469 43.011719 C 235.902344 40.128906 231.597656 22.332031 230.15625 13.605469 C 228.992188 6.535156 224.402344 3.101562 216.125 3.101562 L 158.824219 3.101562 C 150.550781 3.101562 145.960938 6.535156 144.792969 13.605469 C 143.351562 22.332031 139.050781 40.128906 138.347656 43.011719 Z M 152.292969 92.4375 " fill-opacity="1" fill-rule="nonzero"/><path fill="#f8cc00" d="M 303.292969 154.097656 C 303.292969 154.644531 303.265625 155.1875 303.214844 155.726562 C 303.160156 156.269531 303.082031 156.804688 302.976562 157.339844 C 302.867188 157.875 302.738281 158.402344 302.578125 158.921875 C 302.421875 159.441406 302.238281 159.953125 302.03125 160.457031 C 301.820312 160.957031 301.589844 161.449219 301.332031 161.929688 C 301.078125 162.410156 300.796875 162.875 300.496094 163.328125 C 300.191406 163.78125 299.867188 164.214844 299.523438 164.636719 C 299.179688 165.058594 298.8125 165.460938 298.429688 165.84375 C 298.042969 166.230469 297.640625 166.59375 297.222656 166.941406 C 296.800781 167.285156 296.363281 167.609375 295.910156 167.910156 C 295.460938 168.214844 294.992188 168.492188 294.515625 168.75 C 294.035156 169.003906 293.542969 169.238281 293.039062 169.445312 C 292.539062 169.652344 292.027344 169.835938 291.503906 169.996094 C 290.984375 170.152344 290.457031 170.285156 289.925781 170.390625 C 289.390625 170.496094 288.851562 170.578125 288.3125 170.628906 C 287.769531 170.683594 287.226562 170.710938 286.683594 170.710938 C 286.140625 170.710938 285.597656 170.683594 285.054688 170.628906 C 284.515625 170.578125 283.976562 170.496094 283.441406 170.390625 C 282.910156 170.285156 282.382812 170.152344 281.863281 169.996094 C 281.339844 169.835938 280.828125 169.652344 280.328125 169.445312 C 279.824219 169.238281 279.332031 169.003906 278.851562 168.75 C 278.375 168.492188 277.90625 168.214844 277.453125 167.910156 C 277.003906 167.609375 276.566406 167.285156 276.144531 166.941406 C 275.726562 166.59375 275.324219 166.230469 274.9375 165.84375 C 274.554688 165.460938 274.1875 165.058594 273.84375 164.636719 C 273.5 164.214844 273.175781 163.78125 272.871094 163.328125 C 272.570312 162.875 272.289062 162.410156 272.035156 161.929688 C 271.777344 161.449219 271.546875 160.957031 271.335938 160.457031 C 271.128906 159.953125 270.945312 159.441406 270.789062 158.921875 C 270.628906 158.402344 270.5 157.875 270.390625 157.339844 C 270.285156 156.804688 270.207031 156.269531 270.152344 155.726562 C 270.097656 155.1875 270.074219 154.644531 270.074219 154.097656 C 270.074219 153.554688 270.097656 153.011719 270.152344 152.472656 C 270.207031 151.929688 270.285156 151.390625 270.390625 150.859375 C 270.5 150.324219 270.628906 149.796875 270.789062 149.277344 C 270.945312 148.757812 271.128906 148.246094 271.335938 147.742188 C 271.546875 147.238281 271.777344 146.75 272.035156 146.269531 C 272.289062 145.789062 272.570312 145.324219 272.871094 144.871094 C 273.175781 144.417969 273.5 143.980469 273.84375 143.5625 C 274.1875 143.140625 274.554688 142.738281 274.9375 142.355469 C 275.324219 141.96875 275.726562 141.605469 276.144531 141.257812 C 276.566406 140.914062 277.003906 140.589844 277.453125 140.289062 C 277.90625 139.984375 278.375 139.707031 278.851562 139.449219 C 279.332031 139.195312 279.824219 138.960938 280.328125 138.753906 C 280.828125 138.546875 281.339844 138.363281 281.863281 138.203125 C 282.382812 138.046875 282.910156 137.914062 283.441406 137.808594 C 283.976562 137.703125 284.515625 137.621094 285.054688 137.570312 C 285.597656 137.515625 286.140625 137.488281 286.683594 137.488281 C 287.226562 137.488281 287.769531 137.515625 288.3125 137.570312 C 288.851562 137.621094 289.390625 137.703125 289.925781 137.808594 C 290.457031 137.914062 290.984375 138.046875 291.503906 138.203125 C 292.027344 138.363281 292.539062 138.546875 293.039062 138.753906 C 293.542969 138.960938 294.035156 139.195312 294.515625 139.449219 C 294.992188 139.707031 295.460938 139.984375 295.910156 140.289062 C 296.363281 140.589844 296.800781 140.914062 297.222656 141.257812 C 297.640625 141.605469 298.042969 141.96875 298.429688 142.355469 C 298.8125 142.738281 299.179688 143.140625 299.523438 143.5625 C 299.867188 143.980469 300.191406 144.417969 300.496094 144.871094 C 300.796875 145.324219 301.078125 145.789062 301.332031 146.269531 C 301.589844 146.75 301.820312 147.238281 302.03125 147.742188 C 302.238281 148.246094 302.421875 148.757812 302.578125 149.277344 C 302.738281 149.796875 302.867188 150.324219 302.976562 150.859375 C 303.082031 151.390625 303.160156 151.929688 303.214844 152.472656 C 303.265625 153.011719 303.292969 153.554688 303.292969 154.097656 Z M 303.292969 154.097656 " fill-opacity="1" fill-rule="nonzero"/><path fill="#004aad" d="M 187.691406 215.257812 C 187.617188 215.257812 187.546875 215.253906 187.476562 215.242188 C 187.40625 215.253906 187.332031 215.257812 187.257812 215.257812 C 147.96875 215.257812 119.152344 207.949219 101.894531 201.820312 C 83.117188 195.148438 73.777344 188.546875 73.390625 188.269531 C 72.921875 187.9375 72.679688 187.375 72.757812 186.804688 C 72.832031 186.238281 73.214844 185.761719 73.753906 185.5625 L 135.59375 162.714844 C 135.765625 162.652344 135.945312 162.617188 136.128906 162.617188 L 238.824219 162.617188 C 239.007812 162.617188 239.191406 162.652344 239.359375 162.714844 L 301.199219 185.5625 C 301.738281 185.761719 302.121094 186.238281 302.195312 186.804688 C 302.273438 187.375 302.03125 187.9375 301.5625 188.269531 C 301.1875 188.539062 262.945312 215.257812 187.691406 215.257812 Z M 77.75 187.378906 C 87.363281 193.132812 123.972656 212.167969 187.257812 212.167969 C 187.332031 212.167969 187.402344 212.171875 187.476562 212.183594 C 187.546875 212.171875 187.617188 212.167969 187.691406 212.167969 C 250.980469 212.167969 287.585938 193.132812 297.203125 187.378906 L 238.546875 165.707031 L 136.402344 165.707031 Z M 77.75 187.378906 " fill-opacity="1" fill-rule="nonzero"/><path fill="#ff0000" d="M 187.257812 221.738281 L 234.386719 240.125 L 275.335938 220.425781 C 275.335938 220.425781 275.335938 221.996094 275.335938 229.335938 C 275.335938 236.675781 270.203125 241.074219 270.203125 241.074219 L 234.386719 258.308594 L 187.257812 235.964844 L 140.566406 258.308594 L 104.746094 241.074219 C 104.746094 241.074219 99.617188 236.675781 99.617188 229.335938 C 99.617188 221.996094 99.617188 220.425781 99.617188 220.425781 L 140.566406 240.125 L 187.257812 221.738281 " fill-opacity="1" fill-rule="nonzero"/><path fill="#004aad" d="M 234.386719 259.851562 C 234.160156 259.851562 233.933594 259.804688 233.726562 259.703125 L 187.261719 237.675781 L 141.234375 259.703125 C 140.808594 259.902344 140.316406 259.902344 139.894531 259.699219 L 104.078125 242.464844 C 103.957031 242.410156 103.84375 242.335938 103.742188 242.246094 C 103.511719 242.046875 98.074219 237.292969 98.074219 229.335938 L 98.074219 220.425781 C 98.074219 219.894531 98.347656 219.398438 98.796875 219.117188 C 99.246094 218.835938 99.808594 218.804688 100.289062 219.035156 L 140.628906 238.441406 L 186.695312 220.300781 C 187.058594 220.15625 187.460938 220.15625 187.820312 220.300781 L 234.324219 238.441406 L 274.664062 219.035156 C 275.144531 218.804688 275.707031 218.835938 276.15625 219.117188 C 276.605469 219.398438 276.882812 219.894531 276.882812 220.425781 L 276.882812 229.335938 C 276.882812 237.292969 271.445312 242.050781 271.210938 242.246094 C 271.109375 242.335938 270.996094 242.410156 270.875 242.464844 L 235.058594 259.699219 C 234.84375 259.800781 234.617188 259.851562 234.386719 259.851562 Z M 187.257812 234.417969 C 187.484375 234.417969 187.710938 234.46875 187.921875 234.570312 L 234.382812 256.597656 L 269.328125 239.78125 C 270.074219 239.066406 273.789062 235.210938 273.789062 229.335938 L 273.789062 222.882812 L 235.054688 241.519531 C 234.667969 241.703125 234.222656 241.722656 233.824219 241.566406 L 187.257812 223.398438 L 141.128906 241.5625 C 140.730469 241.722656 140.28125 241.703125 139.894531 241.519531 L 101.164062 222.882812 L 101.164062 229.335938 C 101.164062 235.203125 104.871094 239.058594 105.625 239.78125 L 140.566406 256.59375 L 186.589844 234.570312 C 186.800781 234.46875 187.03125 234.417969 187.257812 234.417969 Z M 187.257812 234.417969 " fill-opacity="1" fill-rule="nonzero"/><path fill="#ffffff" d="M 311.453125 366.46875 C 311.453125 366.46875 311.453125 305.132812 311.453125 278.628906 C 311.453125 252.128906 327.960938 229.101562 327.960938 199.4375 C 327.960938 169.773438 327.960938 142.417969 327.960938 142.417969 C 327.960938 142.417969 361.089844 148.855469 361.863281 209.375 C 362.636719 269.898438 370.214844 353.335938 311.453125 366.46875 Z M 311.453125 366.46875 " fill-opacity="1" fill-rule="nonzero"/><path fill="#004aad" d="M 311.453125 368.015625 C 311.105469 368.015625 310.761719 367.898438 310.484375 367.675781 C 310.121094 367.382812 309.90625 366.9375 309.90625 366.46875 L 309.90625 278.628906 C 309.90625 265.507812 313.785156 253.519531 317.886719 240.824219 C 322.082031 227.855469 326.414062 214.445312 326.414062 199.4375 L 326.414062 142.417969 C 326.414062 141.957031 326.621094 141.519531 326.976562 141.226562 C 327.335938 140.933594 327.800781 140.816406 328.253906 140.902344 C 328.613281 140.972656 337.140625 142.71875 345.761719 152.160156 C 359.941406 167.683594 363.183594 191.832031 363.410156 209.355469 C 363.476562 214.714844 363.597656 220.152344 363.722656 225.910156 C 364.996094 283.75 366.578125 355.734375 311.789062 367.976562 C 311.675781 368.003906 311.566406 368.015625 311.453125 368.015625 Z M 329.503906 144.496094 L 329.503906 199.4375 C 329.503906 214.929688 325.09375 228.578125 320.828125 241.773438 C 316.800781 254.230469 312.996094 265.996094 312.996094 278.628906 L 312.996094 364.511719 C 335.113281 358.839844 349.148438 342.03125 355.875 313.191406 C 361.976562 287.019531 361.265625 254.589844 360.632812 225.980469 C 360.507812 220.214844 360.386719 214.769531 360.320312 209.398438 C 359.675781 159.105469 336.3125 146.964844 329.503906 144.496094 Z M 329.503906 144.496094 " fill-opacity="1" fill-rule="nonzero"/><path fill="#004aad" d="M 342.476562 348.777344 C 341.625 348.777344 340.933594 348.085938 340.933594 347.230469 L 340.933594 285.703125 C 340.933594 274.371094 344.101562 262.988281 347.457031 250.9375 C 350.835938 238.800781 354.328125 226.257812 354.328125 213.714844 C 354.328125 204.367188 353.324219 199.421875 350.972656 197.183594 C 348.53125 194.855469 344.082031 195.074219 337.355469 195.402344 C 334.597656 195.535156 331.476562 195.6875 327.960938 195.6875 C 327.109375 195.6875 326.414062 194.996094 326.414062 194.144531 C 326.414062 193.289062 327.109375 192.597656 327.960938 192.597656 C 331.402344 192.597656 334.484375 192.449219 337.203125 192.316406 C 344.460938 191.960938 349.707031 191.707031 353.105469 194.945312 C 356.171875 197.863281 357.417969 203.300781 357.417969 213.710938 C 357.417969 226.675781 353.867188 239.429688 350.433594 251.761719 C 347.136719 263.605469 344.023438 274.792969 344.023438 285.703125 L 344.023438 347.230469 C 344.023438 348.085938 343.332031 348.777344 342.476562 348.777344 Z M 342.476562 348.777344 " fill-opacity="1" fill-rule="nonzero"/><path fill="#000000" d="M 311.453125 350.746094 C 311.453125 350.746094 331.359375 344.148438 331.804688 340.570312 C 332.25 336.996094 331.804688 323.351562 331.804688 323.351562 L 311.453125 323.351562 Z M 311.453125 350.746094 " fill-opacity="1" fill-rule="nonzero"/><path fill="#000000" d="M 311.453125 292.695312 L 332.003906 292.695312 L 332.003906 314.195312 L 311.453125 314.195312 Z M 311.453125 292.695312 " fill-opacity="1" fill-rule="nonzero"/><path fill="#000000" d="M 335.015625 262.339844 L 313.257812 262.339844 C 313.257812 262.339844 311.453125 271.511719 311.453125 283.839844 L 332.003906 283.839844 C 332.003906 283.839844 332.261719 270.816406 335.015625 262.339844 Z M 335.015625 262.339844 " fill-opacity="1" fill-rule="nonzero"/><path fill="#000000" d="M 315.582031 253.4375 L 337.019531 253.4375 L 344.09375 235.128906 L 321.726562 235.128906 Z M 315.582031 253.4375 " fill-opacity="1" fill-rule="nonzero"/><path fill="#000000" d="M 324.007812 226.0625 L 346.203125 226.0625 C 346.203125 226.0625 348.910156 211.230469 347.433594 204.777344 C 337.589844 204.777344 327.785156 204.777344 327.785156 204.777344 C 327.785156 204.777344 326.292969 216.992188 324.007812 226.0625 Z M 324.007812 226.0625 " fill-opacity="1" fill-rule="nonzero"/><path fill="#004aad" d="M 234.386719 344.058594 C 233.535156 344.058594 232.839844 343.363281 232.839844 342.511719 L 232.839844 240.125 C 232.839844 239.273438 233.535156 238.582031 234.386719 238.582031 C 235.238281 238.582031 235.933594 239.273438 235.933594 240.125 L 235.933594 342.511719 C 235.933594 343.363281 235.238281 344.058594 234.386719 344.058594 Z M 234.386719 344.058594 " fill-opacity="1" fill-rule="nonzero"/><path fill="#ff0000" d="M 187.691406 295.390625 C 187.691406 295.390625 199.195312 295.390625 204.566406 319.945312 C 208.5625 338.210938 208.117188 339.355469 209.472656 347.3125 C 210.824219 355.265625 215.84375 370.246094 188.03125 370.246094 L 186.921875 370.246094 C 159.105469 370.246094 164.128906 355.265625 165.480469 347.3125 C 166.832031 339.355469 166.390625 338.210938 170.386719 319.945312 C 175.753906 295.390625 187.257812 295.390625 187.257812 295.390625 Z M 187.691406 295.390625 " fill-opacity="1" fill-rule="nonzero"/><path fill="#004aad" d="M 188.03125 371.792969 L 186.921875 371.792969 C 176.21875 371.792969 169.246094 369.648438 165.597656 365.238281 C 161.453125 360.226562 162.710938 353.648438 163.628906 348.84375 C 163.746094 348.214844 163.863281 347.617188 163.957031 347.054688 C 164.347656 344.753906 164.582031 343.066406 164.832031 341.277344 C 165.421875 337.015625 166.035156 332.609375 168.875 319.613281 C 174.445312 294.140625 186.738281 293.847656 187.257812 293.847656 L 187.691406 293.847656 C 188.214844 293.847656 200.503906 294.140625 206.074219 319.613281 C 208.917969 332.605469 209.53125 337.015625 210.121094 341.277344 C 210.367188 343.066406 210.601562 344.753906 210.992188 347.054688 C 211.089844 347.617188 211.203125 348.214844 211.324219 348.84375 C 212.242188 353.648438 213.5 360.226562 209.355469 365.238281 C 205.707031 369.648438 198.730469 371.792969 188.03125 371.792969 Z M 187.671875 296.9375 L 187.257812 296.9375 C 187.175781 296.941406 176.878906 297.484375 171.894531 320.273438 C 169.078125 333.152344 168.476562 337.5 167.890625 341.703125 C 167.652344 343.4375 167.402344 345.226562 167.003906 347.570312 C 166.90625 348.15625 166.789062 348.773438 166.664062 349.425781 C 165.816406 353.859375 164.761719 359.378906 167.980469 363.265625 C 170.960938 366.875 177.335938 368.703125 186.921875 368.703125 L 188.03125 368.703125 C 197.617188 368.703125 203.992188 366.875 206.976562 363.265625 C 210.191406 359.378906 209.136719 353.859375 208.289062 349.425781 C 208.164062 348.773438 208.046875 348.15625 207.949219 347.570312 C 207.550781 345.226562 207.300781 343.4375 207.0625 341.703125 C 206.480469 337.5 205.875 333.152344 203.058594 320.273438 C 200.429688 308.25 196.328125 302.53125 193.355469 299.847656 C 190.234375 297.039062 187.773438 296.941406 187.671875 296.9375 Z M 187.671875 296.9375 " fill-opacity="1" fill-rule="nonzero"/><path fill="#004aad" d="M 156.957031 348.777344 C 156.929688 348.777344 156.902344 348.777344 156.875 348.773438 C 156.023438 348.730469 155.367188 348 155.414062 347.148438 C 155.558594 344.5 159.25 282.292969 186.921875 282.292969 L 188.03125 282.292969 C 215.703125 282.292969 219.394531 344.5 219.539062 347.148438 C 219.585938 348 218.929688 348.730469 218.078125 348.773438 C 217.234375 348.816406 216.496094 348.167969 216.453125 347.316406 C 216.417969 346.695312 212.796875 285.382812 188.03125 285.382812 L 186.921875 285.382812 C 174.203125 285.382812 167.15625 301.996094 163.488281 315.929688 C 159.398438 331.445312 158.507812 347.160156 158.5 347.316406 C 158.457031 348.140625 157.773438 348.777344 156.957031 348.777344 Z M 156.957031 348.777344 " fill-opacity="1" fill-rule="nonzero"/><path fill="#000000" d="M 187.691406 265.003906 L 210.699219 275.371094 L 210.699219 282.242188 L 188.03125 272.390625 L 186.921875 272.390625 L 164.253906 282.242188 L 164.253906 275.371094 L 187.257812 265.003906 Z M 187.691406 265.003906 " fill-opacity="1" fill-rule="nonzero"/><path fill="#000000" d="M 188.03125 255.667969 L 210.699219 265.519531 L 210.699219 258.644531 L 187.691406 248.277344 L 187.257812 248.277344 L 164.253906 258.644531 L 164.253906 265.519531 L 186.921875 255.667969 Z M 188.03125 255.667969 " fill-opacity="1" fill-rule="nonzero"/><path fill="#ff0000" d="M 188.03125 22.925781 C 188.03125 22.925781 193.09375 22.925781 200.816406 22.925781 C 211.125 22.925781 212.09375 33.671875 212.09375 33.671875 L 223.828125 93.984375 L 151.125 93.984375 L 162.859375 33.671875 C 162.859375 33.671875 163.828125 22.925781 174.136719 22.925781 C 181.859375 22.925781 186.921875 22.925781 186.921875 22.925781 Z M 188.03125 22.925781 " fill-opacity="1" fill-rule="nonzero"/><path fill="#004aad" d="M 223.84375 95.527344 C 223.839844 95.527344 223.832031 95.527344 223.828125 95.527344 L 151.125 95.527344 C 150.664062 95.527344 150.226562 95.320312 149.933594 94.964844 C 149.636719 94.609375 149.519531 94.140625 149.609375 93.6875 L 161.328125 33.449219 C 161.738281 29.226562 164.925781 21.378906 174.132812 21.378906 L 200.816406 21.378906 C 210.027344 21.378906 213.210938 29.226562 213.625 33.449219 L 225.300781 93.476562 C 225.355469 93.632812 225.386719 93.804688 225.386719 93.980469 C 225.386719 94.835938 224.695312 95.527344 223.84375 95.527344 Z M 153 92.4375 L 221.953125 92.4375 L 210.578125 33.964844 C 210.566406 33.914062 210.558594 33.863281 210.554688 33.808594 C 210.519531 33.433594 209.558594 24.472656 200.816406 24.472656 L 174.132812 24.472656 C 165.394531 24.472656 164.433594 33.433594 164.394531 33.8125 C 164.390625 33.863281 164.382812 33.917969 164.375 33.964844 Z M 153 92.4375 " fill-opacity="1" fill-rule="nonzero"/><path fill="#ff0000" d="M 147.878906 4.730469 L 167.140625 25.265625 " fill-opacity="1" fill-rule="nonzero"/><path fill="#004aad" d="M 167.140625 26.8125 C 166.726562 26.8125 166.316406 26.648438 166.011719 26.324219 L 146.753906 5.789062 C 146.167969 5.164062 146.203125 4.1875 146.824219 3.605469 C 147.445312 3.019531 148.425781 3.050781 149.007812 3.675781 L 168.265625 24.210938 C 168.851562 24.832031 168.820312 25.808594 168.195312 26.394531 C 167.898438 26.671875 167.519531 26.8125 167.140625 26.8125 Z M 167.140625 26.8125 " fill-opacity="1" fill-rule="nonzero"/><path fill="#ff0000" d="M 226.871094 4.730469 L 207.613281 25.265625 " fill-opacity="1" fill-rule="nonzero"/><path fill="#004aad" d="M 207.613281 26.8125 C 207.234375 26.8125 206.855469 26.671875 206.558594 26.394531 C 205.933594 25.808594 205.902344 24.832031 206.488281 24.210938 L 225.746094 3.675781 C 226.328125 3.050781 227.308594 3.019531 227.929688 3.605469 C 228.550781 4.1875 228.582031 5.164062 228 5.789062 L 208.742188 26.324219 C 208.4375 26.648438 208.027344 26.8125 207.613281 26.8125 Z M 207.613281 26.8125 " fill-opacity="1" fill-rule="nonzero"/><path fill="#004aad" d="M 177.453125 345.222656 C 176.660156 345.222656 175.988281 344.617188 175.917969 343.8125 L 172.808594 307.785156 C 172.734375 306.9375 173.363281 306.1875 174.214844 306.113281 C 175.058594 306.039062 175.8125 306.667969 175.886719 307.519531 L 178.996094 343.546875 C 179.070312 344.394531 178.4375 345.144531 177.589844 345.21875 C 177.542969 345.222656 177.5 345.222656 177.453125 345.222656 Z M 177.453125 345.222656 " fill-opacity="1" fill-rule="nonzero"/><path fill="#004aad" d="M 209.371094 362.699219 C 208.714844 362.699219 208.105469 362.277344 207.898438 361.617188 C 207.882812 361.574219 206.53125 357.304688 204.261719 353.113281 C 201.507812 348.027344 198.566406 345.222656 195.972656 345.222656 L 178.421875 345.222656 C 175.832031 345.222656 172.886719 348.027344 170.132812 353.113281 C 167.863281 357.304688 166.511719 361.574219 166.5 361.617188 C 166.242188 362.433594 165.371094 362.882812 164.5625 362.628906 C 163.746094 362.375 163.292969 361.507812 163.550781 360.695312 C 164.144531 358.792969 169.621094 342.132812 178.421875 342.132812 L 195.972656 342.132812 C 204.773438 342.132812 210.25 358.792969 210.84375 360.695312 C 211.101562 361.507812 210.648438 362.375 209.832031 362.628906 C 209.679688 362.679688 209.523438 362.699219 209.371094 362.699219 Z M 209.371094 362.699219 " fill-opacity="1" fill-rule="nonzero"/><path fill="#004aad" d="M 196.941406 345.222656 C 196.898438 345.222656 196.851562 345.222656 196.808594 345.21875 C 195.957031 345.144531 195.328125 344.398438 195.402344 343.546875 L 198.511719 307.519531 C 198.585938 306.667969 199.324219 306.039062 200.183594 306.113281 C 201.035156 306.1875 201.664062 306.933594 201.589844 307.785156 L 198.480469 343.8125 C 198.410156 344.617188 197.734375 345.222656 196.941406 345.222656 Z M 196.941406 345.222656 " fill-opacity="1" fill-rule="nonzero"/><path fill="#004aad" d="M 63.5 368.015625 C 63.386719 368.015625 63.273438 368.003906 63.160156 367.976562 C 8.371094 355.734375 9.957031 283.75 11.226562 225.910156 C 11.355469 220.152344 11.472656 214.714844 11.542969 209.355469 C 11.765625 191.832031 15.007812 167.683594 29.1875 152.160156 C 37.8125 142.71875 46.335938 140.972656 46.695312 140.902344 C 47.148438 140.816406 47.617188 140.933594 47.972656 141.226562 C 48.328125 141.519531 48.535156 141.957031 48.535156 142.417969 L 48.535156 199.4375 C 48.535156 214.445312 52.871094 227.855469 57.0625 240.824219 C 61.167969 253.519531 65.042969 265.507812 65.042969 278.628906 L 65.042969 366.46875 C 65.042969 366.9375 64.832031 367.382812 64.464844 367.675781 C 64.1875 367.898438 63.847656 368.015625 63.5 368.015625 Z M 45.445312 144.496094 C 42.625 145.511719 36.960938 148.164062 31.304688 154.429688 C 17.914062 169.25 14.847656 192.5 14.632812 209.398438 C 14.5625 214.769531 14.445312 220.214844 14.316406 225.980469 C 13.6875 254.589844 12.976562 287.019531 19.078125 313.191406 C 25.804688 342.03125 39.839844 358.839844 61.953125 364.511719 L 61.953125 278.628906 C 61.953125 265.996094 58.152344 254.230469 54.125 241.773438 C 49.859375 228.578125 45.445312 214.929688 45.445312 199.4375 Z M 45.445312 144.496094 " fill-opacity="1" fill-rule="nonzero"/><path fill="#004aad" d="M 311.453125 368.015625 C 311.105469 368.015625 310.761719 367.898438 310.484375 367.675781 C 310.121094 367.382812 309.90625 366.9375 309.90625 366.46875 L 309.90625 278.628906 C 309.90625 265.507812 313.785156 253.519531 317.886719 240.824219 C 322.082031 227.855469 326.414062 214.445312 326.414062 199.4375 L 326.414062 142.417969 C 326.414062 141.957031 326.621094 141.519531 326.976562 141.226562 C 327.335938 140.933594 327.800781 140.816406 328.253906 140.902344 C 328.613281 140.972656 337.140625 142.71875 345.761719 152.160156 C 359.941406 167.683594 363.183594 191.832031 363.410156 209.355469 C 363.476562 214.714844 363.597656 220.152344 363.722656 225.910156 C 364.996094 283.75 366.578125 355.734375 311.789062 367.976562 C 311.675781 368.003906 311.566406 368.015625 311.453125 368.015625 Z M 329.503906 144.496094 L 329.503906 199.4375 C 329.503906 214.929688 325.09375 228.578125 320.828125 241.773438 C 316.800781 254.230469 312.996094 265.996094 312.996094 278.628906 L 312.996094 364.511719 C 335.113281 358.839844 349.148438 342.03125 355.875 313.191406 C 361.976562 287.019531 361.265625 254.589844 360.632812 225.980469 C 360.507812 220.214844 360.386719 214.769531 360.320312 209.398438 C 359.675781 159.105469 336.3125 146.964844 329.503906 144.496094 Z M 329.503906 144.496094 " fill-opacity="1" fill-rule="nonzero"/><path fill="#004aad" d="M 126.425781 345.222656 L 94.75 345.222656 C 93.894531 345.222656 93.203125 344.53125 93.203125 343.679688 C 93.203125 342.824219 93.894531 342.132812 94.75 342.132812 L 126.425781 342.132812 C 127.277344 342.132812 127.96875 342.824219 127.96875 343.679688 C 127.96875 344.53125 127.277344 345.222656 126.425781 345.222656 Z M 126.425781 345.222656 " fill-opacity="1" fill-rule="nonzero"/><path fill="#004aad" d="M 124.769531 263.886719 L 93.09375 263.886719 C 92.242188 263.886719 91.550781 263.195312 91.550781 262.339844 C 91.550781 261.488281 92.242188 260.796875 93.09375 260.796875 L 124.769531 260.796875 C 125.621094 260.796875 126.316406 261.488281 126.316406 262.339844 C 126.316406 263.195312 125.621094 263.886719 124.769531 263.886719 Z M 124.769531 263.886719 " fill-opacity="1" fill-rule="nonzero"/><path fill="#004aad" d="M 101.460938 237.507812 L 69.789062 237.507812 C 68.933594 237.507812 68.242188 236.816406 68.242188 235.964844 C 68.242188 235.113281 68.933594 234.417969 69.789062 234.417969 L 101.460938 234.417969 C 102.316406 234.417969 103.007812 235.113281 103.007812 235.964844 C 103.007812 236.816406 102.316406 237.507812 101.460938 237.507812 Z M 101.460938 237.507812 " fill-opacity="1" fill-rule="nonzero"/><path fill="#004aad" d="M 280.195312 345.222656 L 248.992188 345.222656 C 248.136719 345.222656 247.445312 344.53125 247.445312 343.679688 C 247.445312 342.824219 248.136719 342.132812 248.992188 342.132812 L 280.195312 342.132812 C 281.050781 342.132812 281.742188 342.824219 281.742188 343.679688 C 281.742188 344.53125 281.050781 345.222656 280.195312 345.222656 Z M 280.195312 345.222656 " fill-opacity="1" fill-rule="nonzero"/><path fill="#004aad" d="M 282.023438 263.886719 L 251.222656 263.886719 C 250.367188 263.886719 249.675781 263.195312 249.675781 262.339844 C 249.675781 261.488281 250.367188 260.796875 251.222656 260.796875 L 282.023438 260.796875 C 282.875 260.796875 283.566406 261.488281 283.566406 262.339844 C 283.566406 263.195312 282.875 263.886719 282.023438 263.886719 Z M 282.023438 263.886719 " fill-opacity="1" fill-rule="nonzero"/><path fill="#004aad" d="M 305.742188 237.507812 L 274.066406 237.507812 C 273.214844 237.507812 272.523438 236.816406 272.523438 235.964844 C 272.523438 235.113281 273.214844 234.417969 274.066406 234.417969 L 305.742188 234.417969 C 306.597656 234.417969 307.289062 235.113281 307.289062 235.964844 C 307.289062 236.816406 306.597656 237.507812 305.742188 237.507812 Z M 305.742188 237.507812 " fill-opacity="1" fill-rule="nonzero"/><path fill="#004aad" d="M 140.566406 344.058594 C 139.710938 344.058594 139.019531 343.363281 139.019531 342.511719 L 139.019531 240.125 C 139.019531 239.273438 139.710938 238.582031 140.566406 238.582031 C 141.417969 238.582031 142.109375 239.273438 142.109375 240.125 L 142.109375 342.511719 C 142.109375 343.363281 141.417969 344.058594 140.566406 344.058594 Z M 140.566406 344.058594 " fill-opacity="1" fill-rule="nonzero"/><path fill="#004aad" d="M 187.015625 237.507812 C 186.160156 237.507812 185.46875 236.816406 185.46875 235.964844 L 185.46875 222.324219 C 185.46875 221.472656 186.160156 220.78125 187.015625 220.78125 C 187.867188 220.78125 188.558594 221.472656 188.558594 222.324219 L 188.558594 235.964844 C 188.558594 236.816406 187.867188 237.507812 187.015625 237.507812 Z M 187.015625 237.507812 " fill-opacity="1" fill-rule="nonzero"/><path fill="#000000" d="M 295.335938 154.097656 C 295.335938 154.667969 295.28125 155.230469 295.167969 155.789062 C 295.058594 156.34375 294.894531 156.886719 294.675781 157.410156 C 294.460938 157.933594 294.191406 158.433594 293.878906 158.90625 C 293.5625 159.378906 293.203125 159.816406 292.800781 160.21875 C 292.398438 160.617188 291.960938 160.976562 291.492188 161.292969 C 291.019531 161.609375 290.519531 161.875 289.996094 162.09375 C 289.46875 162.308594 288.929688 162.472656 288.371094 162.585938 C 287.8125 162.695312 287.25 162.75 286.683594 162.75 C 286.117188 162.75 285.550781 162.695312 284.996094 162.585938 C 284.4375 162.472656 283.898438 162.308594 283.371094 162.09375 C 282.847656 161.875 282.347656 161.609375 281.875 161.292969 C 281.402344 160.976562 280.96875 160.617188 280.566406 160.21875 C 280.164062 159.816406 279.804688 159.378906 279.488281 158.90625 C 279.171875 158.433594 278.90625 157.933594 278.691406 157.410156 C 278.472656 156.886719 278.308594 156.34375 278.199219 155.789062 C 278.085938 155.230469 278.03125 154.667969 278.03125 154.097656 C 278.03125 153.53125 278.085938 152.96875 278.199219 152.410156 C 278.308594 151.855469 278.472656 151.3125 278.691406 150.789062 C 278.90625 150.261719 279.171875 149.765625 279.488281 149.292969 C 279.804688 148.820312 280.164062 148.382812 280.566406 147.980469 C 280.96875 147.578125 281.402344 147.222656 281.875 146.90625 C 282.347656 146.589844 282.847656 146.324219 283.371094 146.105469 C 283.898438 145.886719 284.4375 145.722656 284.996094 145.613281 C 285.550781 145.503906 286.117188 145.445312 286.683594 145.445312 C 287.25 145.445312 287.8125 145.503906 288.371094 145.613281 C 288.929688 145.722656 289.46875 145.886719 289.996094 146.105469 C 290.519531 146.324219 291.019531 146.589844 291.492188 146.90625 C 291.960938 147.222656 292.398438 147.578125 292.800781 147.980469 C 293.203125 148.382812 293.5625 148.820312 293.878906 149.292969 C 294.191406 149.765625 294.460938 150.261719 294.675781 150.789062 C 294.894531 151.3125 295.058594 151.855469 295.167969 152.410156 C 295.28125 152.96875 295.335938 153.53125 295.335938 154.097656 Z M 295.335938 154.097656 " fill-opacity="1" fill-rule="nonzero"/><path fill="#ffffff" d="M 143.269531 171.777344 C 143.269531 171.777344 15.148438 35.289062 8.96875 27.046875 C 2.785156 18.804688 7.59375 15.570312 15.488281 21.039062 C 22.675781 26.011719 156.957031 110.007812 156.957031 110.007812 Z M 143.269531 171.777344 " fill-opacity="1" fill-rule="nonzero"/><path fill="#004aad" d="M 143.269531 173.320312 C 142.847656 173.320312 142.4375 173.148438 142.144531 172.835938 C 136.910156 167.257812 13.894531 36.1875 7.730469 27.972656 C 4.140625 23.183594 4.28125 20.382812 5.035156 18.878906 C 5.710938 17.53125 7.0625 16.789062 8.839844 16.789062 C 10.949219 16.789062 13.554688 17.820312 16.371094 19.765625 C 23.445312 24.664062 156.433594 107.859375 157.777344 108.699219 C 158.332031 109.042969 158.605469 109.703125 158.464844 110.339844 L 144.777344 172.109375 C 144.652344 172.671875 144.230469 173.113281 143.679688 173.265625 C 143.542969 173.304688 143.40625 173.320312 143.269531 173.320312 Z M 8.839844 19.878906 C 8.453125 19.878906 7.957031 19.945312 7.800781 20.261719 C 7.503906 20.851562 7.675781 22.75 10.203125 26.121094 C 15.84375 33.636719 126.074219 151.191406 142.394531 168.585938 L 155.210938 110.738281 C 142.351562 102.691406 21.511719 27.085938 14.609375 22.308594 C 12.382812 20.765625 10.277344 19.878906 8.839844 19.878906 Z M 8.839844 19.878906 " fill-opacity="1" fill-rule="nonzero"/><path fill="#ffffff" d="M 231.683594 171.777344 C 231.683594 171.777344 359.804688 35.289062 365.984375 27.046875 C 372.164062 18.804688 367.359375 15.570312 359.460938 21.039062 C 352.277344 26.011719 217.996094 110.007812 217.996094 110.007812 Z M 231.683594 171.777344 " fill-opacity="1" fill-rule="nonzero"/><path fill="#004aad" d="M 231.683594 173.320312 C 231.546875 173.320312 231.410156 173.304688 231.273438 173.265625 C 230.722656 173.117188 230.296875 172.671875 230.175781 172.113281 L 216.484375 110.34375 C 216.34375 109.703125 216.621094 109.046875 217.175781 108.699219 C 218.519531 107.859375 351.507812 24.664062 358.582031 19.769531 C 361.398438 17.820312 364 16.789062 366.113281 16.789062 C 367.890625 16.789062 369.242188 17.53125 369.917969 18.878906 C 370.667969 20.386719 370.8125 23.1875 367.21875 27.976562 C 361.058594 36.191406 238.042969 167.257812 232.808594 172.835938 C 232.511719 173.148438 232.101562 173.320312 231.683594 173.320312 Z M 219.738281 110.738281 L 232.558594 168.585938 C 248.875 151.191406 359.109375 33.636719 364.75 26.121094 C 367.273438 22.753906 367.449219 20.851562 367.152344 20.261719 C 366.996094 19.945312 366.5 19.878906 366.113281 19.878906 C 364.675781 19.878906 362.570312 20.765625 360.339844 22.308594 C 353.441406 27.085938 232.601562 102.691406 219.738281 110.738281 Z M 219.738281 110.738281 " fill-opacity="1" fill-rule="nonzero"/><path fill="#ff0000" d="M 188.03125 103.789062 L 216.617188 103.789062 L 231.683594 171.777344 L 187.476562 209.375 L 143.269531 171.777344 L 158.335938 103.789062 Z M 188.03125 103.789062 " fill-opacity="1" fill-rule="nonzero"/><path fill="#004aad" d="M 187.476562 210.921875 C 187.121094 210.921875 186.765625 210.800781 186.476562 210.554688 L 142.269531 172.953125 C 141.832031 172.582031 141.636719 172 141.761719 171.441406 L 156.824219 103.453125 C 156.984375 102.746094 157.609375 102.242188 158.335938 102.242188 L 216.617188 102.242188 C 217.34375 102.242188 217.96875 102.746094 218.125 103.453125 L 233.191406 171.441406 C 233.316406 172 233.121094 172.582031 232.683594 172.953125 L 188.476562 210.554688 C 188.1875 210.800781 187.832031 210.921875 187.476562 210.921875 Z M 144.980469 171.203125 L 187.476562 207.347656 L 229.972656 171.203125 L 215.375 105.335938 L 159.574219 105.335938 Z M 144.980469 171.203125 " fill-opacity="1" fill-rule="nonzero"/><path fill="#004aad" d="M 187.691406 179.9375 L 187.257812 179.9375 C 177.578125 179.9375 169.367188 171.359375 168.554688 170.480469 L 147.074219 151.082031 C 146.441406 150.507812 146.390625 149.53125 146.960938 148.898438 C 147.53125 148.265625 148.511719 148.214844 149.144531 148.785156 L 170.679688 168.234375 C 170.714844 168.269531 170.753906 168.304688 170.785156 168.339844 C 170.863281 168.425781 178.652344 176.847656 187.257812 176.847656 L 187.691406 176.847656 C 196.324219 176.847656 204.085938 168.425781 204.164062 168.34375 C 204.199219 168.304688 204.234375 168.269531 204.269531 168.234375 L 225.804688 148.785156 C 226.441406 148.214844 227.417969 148.265625 227.988281 148.898438 C 228.5625 149.53125 228.511719 150.507812 227.878906 151.082031 L 206.394531 170.480469 C 205.582031 171.359375 197.375 179.9375 187.691406 179.9375 Z M 187.691406 179.9375 " fill-opacity="1" fill-rule="nonzero"/></svg>